<?xml version="1.0" encoding="iso-8859-1"?>
<!-- Generator: Adobe Illustrator 19.0.0, SVG Export Plug-In . SVG Version: 6.00 Build 0)  -->
<svg version="1.1" id="Capa_1" xmlns="http://www.w3.org/2000/svg" xmlns:xlink="http://www.w3.org/1999/xlink" x="0px" y="0px"
	 viewBox="0 0 512 512" style="enable-background:new 0 0 512 512;" xml:space="preserve">
<circle style="fill:#91CECE;" cx="256" cy="256" r="256"/>
<circle style="fill:#FFD33F;" cx="256" cy="256" r="220.69"/>
<path style="fill:#FFAC3E;" d="M402.953,91.392c80.958,91.11,72.73,230.603-18.379,311.561c-83.606,74.293-209.576,74.293-293.182,0
	c80.958,91.109,220.451,99.337,311.561,18.379s99.337-220.451,18.379-311.561C415.567,103.292,409.432,97.148,402.953,91.392z"/>
<g>
	<rect x="52.966" y="247.172" style="fill:#EA3836;" width="35.31" height="17.655"/>
	<rect x="423.724" y="247.172" style="fill:#EA3836;" width="35.31" height="17.655"/>
	
		<rect x="77.79" y="339.875" transform="matrix(-0.8661 0.4999 -0.4999 -0.8661 352.4239 602.998)" style="fill:#EA3836;" width="35.311" height="17.655"/>
	
		<rect x="398.922" y="154.505" transform="matrix(-0.8661 0.4999 -0.4999 -0.8661 859.0188 96.5497)" style="fill:#EA3836;" width="35.311" height="17.655"/>
	
		<rect x="86.627" y="145.655" transform="matrix(-0.4999 0.8661 -0.8661 -0.4999 284.6135 162.2757)" style="fill:#EA3836;" width="17.655" height="35.311"/>
	
		<rect x="407.729" y="330.993" transform="matrix(-0.4999 0.8661 -0.8661 -0.4999 926.7505 162.16)" style="fill:#EA3836;" width="17.655" height="35.311"/>
	
		<rect x="154.485" y="77.806" transform="matrix(-0.8661 0.4999 -0.4999 -0.8661 352.4763 96.5005)" style="fill:#EA3836;" width="17.655" height="35.311"/>
	<rect x="247.172" y="52.966" style="fill:#EA3836;" width="17.655" height="35.31"/>
	
		<rect x="331.027" y="86.611" transform="matrix(-0.4999 0.8661 -0.8661 -0.4999 605.645 -158.841)" style="fill:#EA3836;" width="35.311" height="17.655"/>
	
		<rect x="63.846" y="193.622" transform="matrix(-0.2588 0.9659 -0.9659 -0.2588 291.2973 190.2034)" style="fill:#EA3836;" width="17.655" height="26.482"/>
	
		<rect x="430.52" y="291.9" transform="matrix(-0.2588 0.9659 -0.9659 -0.2588 847.799 -40.2646)" style="fill:#EA3836;" width="17.655" height="26.482"/>
	
		<rect x="112.97" y="108.547" transform="matrix(-0.7071 0.7071 -0.7071 -0.7071 294.0392 121.7809)" style="fill:#EA3836;" width="17.655" height="26.483"/>
	
		<rect x="198.043" y="59.439" transform="matrix(-0.9659 0.2588 -0.2588 -0.9659 425.5031 89.3439)" style="fill:#EA3836;" width="17.655" height="26.482"/>
	
		<rect x="291.861" y="63.896" transform="matrix(-0.2588 0.9659 -0.9659 -0.2588 454.3109 -203.1625)" style="fill:#EA3836;" width="26.482" height="17.655"/>
	
		<rect x="376.963" y="112.992" transform="matrix(-0.7071 0.7071 -0.7071 -0.7071 752.2596 -67.9562)" style="fill:#EA3836;" width="26.483" height="17.655"/>
	
		<rect x="426.089" y="198.042" transform="matrix(-0.9659 0.2588 -0.2588 -0.9659 917.2303 292.988)" style="fill:#EA3836;" width="26.482" height="17.655"/>
	
		<rect x="59.434" y="296.295" transform="matrix(-0.9659 0.2588 -0.2588 -0.9659 221.8412 581.0399)" style="fill:#EA3836;" width="26.482" height="17.655"/>
</g>
<path style="fill:#383856;" d="M133.667,335.448c-3.16,0-6.073-1.677-7.654-4.414c-41.401-71.804-16.755-163.566,55.04-204.968
	s163.566-16.755,204.968,55.04c19.615,34.013,25.115,74.364,15.325,112.393c-1.218,4.723-6.038,7.565-10.761,6.347
	c-4.723-1.218-7.565-6.038-6.347-10.761c18.238-70.824-24.391-143.016-95.214-161.254s-143.016,24.399-161.245,95.214
	c-8.642,33.545-3.787,69.146,13.515,99.16c2.436,4.22,0.989,9.622-3.231,12.058C136.73,335.033,135.212,335.448,133.667,335.448z"/>
<path style="fill:#EA3836;" d="M220.69,353.103h70.621c19.5,0,35.31,15.81,35.31,35.31l0,0c0,19.5-15.81,35.31-35.31,35.31H220.69
	c-19.5,0-35.31-15.81-35.31-35.31l0,0C185.379,368.914,201.19,353.103,220.69,353.103z"/>
<g>
	<path style="fill:#383856;" d="M238.345,397.241H220.69c-4.873,0-8.828-3.955-8.828-8.828s3.955-8.828,8.828-8.828h17.655
		c4.873,0,8.828,3.955,8.828,8.828S243.218,397.241,238.345,397.241z"/>
	<path style="fill:#383856;" d="M291.31,397.241h-17.655c-4.873,0-8.828-3.955-8.828-8.828s3.955-8.828,8.828-8.828h17.655
		c4.873,0,8.828,3.955,8.828,8.828S296.183,397.241,291.31,397.241z"/>
</g>
<path style="fill:#EA3836;" d="M280.188,245.292c5.95,13.321-0.035,28.946-13.356,34.895c-3.407,1.518-7.097,2.304-10.831,2.295
	l123.586,44.138L280.188,245.292z"/>
<polygon style="fill:#D62121;" points="256,282.483 379.586,326.621 264.828,274.344 "/>
<circle style="fill:#383856;" cx="256" cy="256" r="26.483"/>
<path style="fill:#202033;" d="M269.718,233.454c2.56,4.122,3.919,8.872,3.937,13.718c0,14.627-11.855,26.483-26.483,26.483
	c-4.846-0.018-9.596-1.377-13.718-3.937c7.539,12.482,23.782,16.49,36.264,8.951c12.482-7.539,16.49-23.782,8.951-36.264
	C276.454,238.742,273.382,235.67,269.718,233.454z"/>
<g>
	<path style="fill:#D62121;" d="M229.517,361.931h70.621c7.203,0,14.23,2.216,20.136,6.347
		c-6.585-9.498-17.408-15.175-28.963-15.175H220.69c-19.5,0.044-35.275,15.881-35.24,35.381c0.026,11.511,5.658,22.29,15.104,28.884
		c-11.149-15.969-7.239-37.95,8.73-49.09C215.217,364.138,222.279,361.922,229.517,361.931z"/>
	<path style="fill:#D62121;" d="M457.401,264.828h1.633v-17.655h-0.221C458.575,253.122,458.09,259.01,457.401,264.828z"/>
	<path style="fill:#D62121;" d="M427.423,365.162l8.828-15.289l-5.623-3.249c-2.904,5.138-5.959,10.178-9.242,15.007
		L427.423,365.162z"/>
	<path style="fill:#D62121;" d="M449.827,317.078l4.573-17.055l-3.875-1.033c-1.624,5.694-3.434,11.308-5.5,16.772L449.827,317.078z
		"/>
</g>
<g>
</g>
<g>
</g>
<g>
</g>
<g>
</g>
<g>
</g>
<g>
</g>
<g>
</g>
<g>
</g>
<g>
</g>
<g>
</g>
<g>
</g>
<g>
</g>
<g>
</g>
<g>
</g>
<g>
</g>
</svg>
